<svg width="72" height="48" viewBox="0 0 72 48" fill="none" xmlns="http://www.w3.org/2000/svg">
<g clip-path="url(#clip0_24_14)">
<path d="M0 3C0 1.34315 1.34315 0 3 0H69C70.6569 0 72 1.34315 72 3V45C72 46.6569 70.6569 48 69 48H3C1.34315 48 0 46.6569 0 45V3Z" fill="#E1E1E1"/>
<path d="M6.344 39L7.888 36.728L6.44 34.6H7.432L8.208 35.816C8.24534 35.88 8.28267 35.9493 8.32 36.024C8.35734 36.0933 8.38667 36.152 8.408 36.2C8.424 36.152 8.448 36.0933 8.48 36.024C8.51733 35.9493 8.55734 35.88 8.6 35.816L9.376 34.6H10.368L8.92 36.736L10.456 39H9.464L8.608 37.68C8.57067 37.616 8.53333 37.544 8.496 37.464C8.45867 37.384 8.42934 37.32 8.408 37.272C8.38134 37.32 8.34934 37.384 8.312 37.464C8.27467 37.544 8.23467 37.616 8.192 37.68L7.328 39H6.344Z" fill="#646464"/>
<path d="M11.1409 39L12.6849 36.728L11.2369 34.6H12.2289L13.0049 35.816C13.0422 35.88 13.0795 35.9493 13.1169 36.024C13.1542 36.0933 13.1835 36.152 13.2049 36.2C13.2209 36.152 13.2449 36.0933 13.2769 36.024C13.3142 35.9493 13.3542 35.88 13.3969 35.816L14.1729 34.6H15.1649L13.7169 36.736L15.2529 39H14.2609L13.4049 37.68C13.3675 37.616 13.3302 37.544 13.2929 37.464C13.2555 37.384 13.2262 37.32 13.2049 37.272C13.1782 37.32 13.1462 37.384 13.1089 37.464C13.0715 37.544 13.0315 37.616 12.9889 37.68L12.1249 39H11.1409Z" fill="#646464"/>
<path d="M15.9378 39L17.4818 36.728L16.0338 34.6H17.0258L17.8018 35.816C17.8391 35.88 17.8764 35.9493 17.9138 36.024C17.9511 36.0933 17.9804 36.152 18.0018 36.2C18.0178 36.152 18.0418 36.0933 18.0738 36.024C18.1111 35.9493 18.1511 35.88 18.1938 35.816L18.9698 34.6H19.9618L18.5138 36.736L20.0498 39H19.0578L18.2018 37.68C18.1644 37.616 18.1271 37.544 18.0898 37.464C18.0524 37.384 18.0231 37.32 18.0018 37.272C17.9751 37.32 17.9431 37.384 17.9058 37.464C17.8684 37.544 17.8284 37.616 17.7858 37.68L16.9218 39H15.9378Z" fill="#646464"/>
<path d="M25.5315 39L27.0755 36.728L25.6275 34.6H26.6195L27.3955 35.816C27.4328 35.88 27.4702 35.9493 27.5075 36.024C27.5448 36.0933 27.5742 36.152 27.5955 36.2C27.6115 36.152 27.6355 36.0933 27.6675 36.024C27.7048 35.9493 27.7448 35.88 27.7875 35.816L28.5635 34.6H29.5555L28.1075 36.736L29.6435 39H28.6515L27.7955 37.68C27.7582 37.616 27.7208 37.544 27.6835 37.464C27.6462 37.384 27.6168 37.32 27.5955 37.272C27.5688 37.32 27.5368 37.384 27.4995 37.464C27.4622 37.544 27.4222 37.616 27.3795 37.68L26.5155 39H25.5315Z" fill="#646464"/>
<path d="M30.3284 39L31.8724 36.728L30.4244 34.6H31.4164L32.1924 35.816C32.2297 35.88 32.267 35.9493 32.3044 36.024C32.3417 36.0933 32.371 36.152 32.3924 36.2C32.4084 36.152 32.4324 36.0933 32.4644 36.024C32.5017 35.9493 32.5417 35.88 32.5844 35.816L33.3604 34.6H34.3524L32.9044 36.736L34.4404 39H33.4484L32.5924 37.68C32.555 37.616 32.5177 37.544 32.4804 37.464C32.443 37.384 32.4137 37.32 32.3924 37.272C32.3657 37.32 32.3337 37.384 32.2964 37.464C32.259 37.544 32.219 37.616 32.1764 37.68L31.3124 39H30.3284Z" fill="#646464"/>
<path d="M35.1253 39L36.6693 36.728L35.2213 34.6H36.2133L36.9893 35.816C37.0266 35.88 37.0639 35.9493 37.1013 36.024C37.1386 36.0933 37.1679 36.152 37.1893 36.2C37.2053 36.152 37.2293 36.0933 37.2613 36.024C37.2986 35.9493 37.3386 35.88 37.3813 35.816L38.1573 34.6H39.1493L37.7013 36.736L39.2373 39H38.2453L37.3893 37.68C37.3519 37.616 37.3146 37.544 37.2773 37.464C37.2399 37.384 37.2106 37.32 37.1893 37.272C37.1626 37.32 37.1306 37.384 37.0933 37.464C37.0559 37.544 37.0159 37.616 36.9733 37.68L36.1093 39H35.1253Z" fill="#646464"/>
<path d="M44.719 39L46.263 36.728L44.815 34.6H45.807L46.583 35.816C46.6203 35.88 46.6577 35.9493 46.695 36.024C46.7323 36.0933 46.7617 36.152 46.783 36.2C46.799 36.152 46.823 36.0933 46.855 36.024C46.8923 35.9493 46.9323 35.88 46.975 35.816L47.751 34.6H48.743L47.295 36.736L48.831 39H47.839L46.983 37.68C46.9457 37.616 46.9083 37.544 46.871 37.464C46.8337 37.384 46.8043 37.32 46.783 37.272C46.7563 37.32 46.7243 37.384 46.687 37.464C46.6497 37.544 46.6097 37.616 46.567 37.68L45.703 39H44.719Z" fill="#646464"/>
<path d="M49.5159 39L51.0599 36.728L49.6119 34.6H50.6039L51.3799 35.816C51.4172 35.88 51.4545 35.9493 51.4919 36.024C51.5292 36.0933 51.5585 36.152 51.5799 36.2C51.5959 36.152 51.6199 36.0933 51.6519 36.024C51.6892 35.9493 51.7292 35.88 51.7719 35.816L52.5479 34.6H53.5399L52.0919 36.736L53.6279 39H52.6359L51.7799 37.68C51.7425 37.616 51.7052 37.544 51.6679 37.464C51.6305 37.384 51.6012 37.32 51.5799 37.272C51.5532 37.32 51.5212 37.384 51.4839 37.464C51.4465 37.544 51.4065 37.616 51.3639 37.68L50.4999 39H49.5159Z" fill="#646464"/>
<path d="M54.3128 39L55.8568 36.728L54.4087 34.6H55.4007L56.1768 35.816C56.2141 35.88 56.2514 35.9493 56.2887 36.024C56.3261 36.0933 56.3554 36.152 56.3768 36.2C56.3927 36.152 56.4167 36.0933 56.4487 36.024C56.4861 35.9493 56.5261 35.88 56.5687 35.816L57.3447 34.6H58.3368L56.8887 36.736L58.4248 39H57.4328L56.5768 37.68C56.5394 37.616 56.5021 37.544 56.4647 37.464C56.4274 37.384 56.3981 37.32 56.3768 37.272C56.3501 37.32 56.3181 37.384 56.2808 37.464C56.2434 37.544 56.2034 37.616 56.1608 37.68L55.2967 39H54.3128Z" fill="#646464"/>
<path d="M59.1096 39L60.6536 36.728L59.2056 34.6H60.1976L60.9736 35.816C61.011 35.88 61.0483 35.9493 61.0856 36.024C61.123 36.0933 61.1523 36.152 61.1736 36.2C61.1896 36.152 61.2136 36.0933 61.2456 36.024C61.283 35.9493 61.323 35.88 61.3656 35.816L62.1416 34.6H63.1336L61.6856 36.736L63.2216 39H62.2296L61.3736 37.68C61.3363 37.616 61.299 37.544 61.2616 37.464C61.2243 37.384 61.195 37.32 61.1736 37.272C61.147 37.32 61.115 37.384 61.0776 37.464C61.0403 37.544 61.0003 37.616 60.9576 37.68L60.0936 39H59.1096Z" fill="#646464"/>
<path d="M6.43 16L8.29 8.7H9.71L11.58 16H10.48L10.04 14.15H7.97L7.53 16H6.43ZM8.17 13.25H9.83L9.33 11.15C9.24333 10.7767 9.17 10.4533 9.11 10.18C9.05667 9.90667 9.02 9.71667 9 9.61C8.98 9.71667 8.94333 9.90667 8.89 10.18C8.83667 10.4533 8.76333 10.7733 8.67 11.14L8.17 13.25Z" fill="#646464"/>
<path d="M12.6561 16V8.7H13.9861L14.7261 11.04C14.7994 11.2667 14.8594 11.48 14.9061 11.68C14.9528 11.8733 14.9861 12.0233 15.0061 12.13C15.0261 12.0233 15.0594 11.87 15.1061 11.67C15.1528 11.47 15.2128 11.2567 15.2861 11.03L16.0061 8.7H17.3361V16H16.3161V12.74C16.3161 12.1133 16.3394 11.5133 16.3861 10.94C16.4394 10.36 16.4994 9.80667 16.5661 9.28L15.4761 12.83H14.5061L13.4061 9.32C13.4728 9.80667 13.5361 10.3267 13.5961 10.88C13.6561 11.4333 13.6861 12.0533 13.6861 12.74V16H12.6561Z" fill="#646464"/>
<path d="M18.9322 16V8.7H23.2222V9.66H19.9922V11.74H22.8722V12.67H19.9922V15.04H23.2222V16H18.9322Z" fill="#646464"/>
<path d="M24.3283 16L26.3883 12.28L24.4483 8.7H25.6683L26.6883 10.69C26.7483 10.8167 26.8083 10.9433 26.8683 11.07C26.9283 11.1967 26.9749 11.2933 27.0083 11.36C27.0349 11.2933 27.0749 11.1967 27.1283 11.07C27.1883 10.9433 27.2516 10.8167 27.3183 10.69L28.3583 8.7H29.5283L27.5883 12.24L29.6483 16H28.4283L27.2983 13.84C27.2316 13.7133 27.1683 13.5867 27.1083 13.46C27.0483 13.3267 27.0016 13.2233 26.9683 13.15C26.9416 13.2233 26.8983 13.3267 26.8383 13.46C26.7783 13.5867 26.7183 13.71 26.6583 13.83L25.5083 16H24.3283Z" fill="#646464"/>
<rect x="36" y="4" width="32" height="20" fill="#FF1F00"/>
<rect x="38" y="6" width="28" height="16" fill="white"/>
<path d="M40.87 17.9996V17.0196H42.81V11.6396L40.86 13.0896V11.9196L42.53 10.6996H43.89V17.0196H45.46V17.9996H40.87Z" fill="black"/>
<path d="M46.8461 17.9996V16.9796L49.2561 14.4296C49.5494 14.1096 49.7661 13.8196 49.9061 13.5596C50.0461 13.2929 50.1161 13.0329 50.1161 12.7796C50.1161 12.3996 50.0094 12.1029 49.7961 11.8896C49.5894 11.6696 49.3027 11.5596 48.9361 11.5596C48.5627 11.5596 48.2661 11.6729 48.0461 11.8996C47.8327 12.1196 47.7261 12.4229 47.7261 12.8096H46.6461C46.6661 12.1363 46.8827 11.5996 47.2961 11.1996C47.7094 10.7996 48.2594 10.5996 48.9461 10.5996C49.6327 10.5996 50.1794 10.7929 50.5861 11.1796C50.9927 11.5596 51.1961 12.0796 51.1961 12.7396C51.1961 13.1129 51.0961 13.4896 50.8961 13.8696C50.6961 14.2429 50.3761 14.6629 49.9361 15.1296L48.1361 17.0196H51.3061V17.9996H46.8461Z" fill="black"/>
<path d="M54.9022 18.0996C54.4422 18.0996 54.0422 18.0129 53.7022 17.8396C53.3688 17.6663 53.1088 17.4229 52.9222 17.1096C52.7355 16.7896 52.6422 16.4196 52.6422 15.9996H53.7222C53.7222 16.3663 53.8255 16.6529 54.0322 16.8596C54.2455 17.0596 54.5388 17.1596 54.9122 17.1596C55.2922 17.1596 55.5855 17.0563 55.7922 16.8496C55.9988 16.6363 56.1022 16.3529 56.1022 15.9996V15.4796C56.1022 15.1063 55.9955 14.8196 55.7822 14.6196C55.5755 14.4129 55.2855 14.3096 54.9122 14.3096H54.0922V13.4096L55.7522 11.6496H52.9522V10.6996H56.9422V11.6396L55.2822 13.3896C55.8688 13.4496 56.3322 13.6663 56.6722 14.0396C57.0122 14.4063 57.1822 14.8829 57.1822 15.4696V15.9996C57.1822 16.4196 57.0855 16.7896 56.8922 17.1096C56.7055 17.4229 56.4422 17.6663 56.1022 17.8396C55.7622 18.0129 55.3622 18.0996 54.9022 18.0996Z" fill="black"/>
<path d="M61.8983 17.9996V16.4796H58.6283V14.8596L61.3083 10.6996H62.4983L59.6783 15.1196V15.5096H61.8983V13.7996H62.9783V17.9996H61.8983Z" fill="black"/>
</g>
<defs>
<clipPath id="clip0_24_14">
<rect width="72" height="48" rx="3" fill="white"/>
</clipPath>
</defs>
</svg>
