<svg width="72" height="48" viewBox="0 0 72 48" fill="none" xmlns="http://www.w3.org/2000/svg">
<path d="M0 3C0 1.34315 1.34315 0 3 0H69C70.6569 0 72 1.34315 72 3V45C72 46.6569 70.6569 48 69 48H3C1.34315 48 0 46.6569 0 45V3Z" fill="#E1E1E1"/>
<rect y="6" width="72" height="10" fill="black"/>
<rect x="6" y="26" width="34" height="8" fill="white"/>
<rect x="40" y="20" width="26" height="20" fill="#FF1F00"/>
<rect x="42" y="22" width="22" height="16" fill="white"/>
<path d="M44.87 34V33.02H46.81V27.64L44.86 29.09V27.92L46.53 26.7H47.89V33.02H49.46V34H44.87Z" fill="black"/>
<path d="M50.8461 34V32.98L53.2561 30.43C53.5494 30.11 53.7661 29.82 53.9061 29.56C54.0461 29.2933 54.1161 29.0333 54.1161 28.78C54.1161 28.4 54.0094 28.1033 53.7961 27.89C53.5894 27.67 53.3028 27.56 52.9361 27.56C52.5628 27.56 52.2661 27.6733 52.0461 27.9C51.8328 28.12 51.7261 28.4233 51.7261 28.81H50.6461C50.6661 28.1367 50.8828 27.6 51.2961 27.2C51.7094 26.8 52.2594 26.6 52.9461 26.6C53.6328 26.6 54.1794 26.7933 54.5861 27.18C54.9928 27.56 55.1961 28.08 55.1961 28.74C55.1961 29.1133 55.0961 29.49 54.8961 29.87C54.6961 30.2433 54.3761 30.6633 53.9361 31.13L52.1361 33.02H55.3061V34H50.8461Z" fill="black"/>
<path d="M58.9022 34.1C58.4422 34.1 58.0422 34.0133 57.7022 33.84C57.3689 33.6667 57.1089 33.4233 56.9222 33.11C56.7355 32.79 56.6422 32.42 56.6422 32H57.7222C57.7222 32.3667 57.8255 32.6533 58.0322 32.86C58.2455 33.06 58.5389 33.16 58.9122 33.16C59.2922 33.16 59.5855 33.0567 59.7922 32.85C59.9989 32.6367 60.1022 32.3533 60.1022 32V31.48C60.1022 31.1067 59.9955 30.82 59.7822 30.62C59.5755 30.4133 59.2855 30.31 58.9122 30.31H58.0922V29.41L59.7522 27.65H56.9522V26.7H60.9422V27.64L59.2822 29.39C59.8689 29.45 60.3322 29.6667 60.6722 30.04C61.0122 30.4067 61.1822 30.8833 61.1822 31.47V32C61.1822 32.42 61.0855 32.79 60.8922 33.11C60.7055 33.4233 60.4422 33.6667 60.1022 33.84C59.7622 34.0133 59.3622 34.1 58.9022 34.1Z" fill="black"/>
</svg>
